<svg viewBox="0 0 111 28" fill="none" xmlns="http://www.w3.org/2000/svg">
<path d="M60.4608 5.69899C55.4752 5.23561 49.8222 4.5707 45.849 3.92907C37.7747 2.62661 15.7145 -1.00047 0.447073 0.693899L1.22544 1.55236C10.2412 1.09389 15.4349 2.12965 20.5186 2.94273C26.0464 3.8268 43.2947 7.92915 51.2707 9.45525C53.9653 9.97109 57.167 10.4832 60.6267 10.8884C60.4202 9.59691 61.4206 8.51151 61.1394 7.18157C61.0467 6.73393 60.5625 6.13991 60.4608 5.69899ZM61.9261 15.1004C60.5742 15.2778 58.7201 15.4983 57.9554 15.5455C53.528 15.8149 31.0689 18.8792 25.9449 19.6054C20.8209 20.3317 5.25815 25.0309 0.696918 26.3737L2.67101e-07 27.5C14.5424 23.4982 18.8024 22.8478 24.3086 21.8061C31.1238 20.5164 44.8117 18.6699 49.3964 18.1773C53.779 17.7066 57.7505 17.2441 61.3322 16.7946C61.325 16.6993 63.233 16.6952 62.5 16.5C64.1889 16.4921 61.9691 15.54 61.9261 15.1004ZM85.1606 6.4686C78.8389 6.89149 69.404 6.4999 60.4608 5.69899C60.5302 6.00755 60.5978 6.31745 60.6637 6.62869C60.9735 8.09816 60.4148 9.45783 60.6267 10.8884C67.5856 11.6603 76.3037 12.0704 83.1775 11.1107C79.5858 12.2024 68.5173 14.1985 61.9261 15.1004C61.9732 15.6393 62.0122 16.1741 62.0441 16.7032C71.9777 15.4413 78.8194 14.2777 82.9634 13.2842C88.6785 11.9143 101.638 8.93256 110.195 0.531702C100.187 5.25728 90.7261 6.09599 85.1606 6.4686Z" fill="#FC3D21"/>
</svg>
